<svg xmlns="http://www.w3.org/2000/svg" viewBox="0 0 30 30">
    <path style="fill:#ff033e;line-height:normal;text-indent:0;text-align:start;text-decoration-line:none;text-decoration-style:solid;text-decoration-color:#000;text-transform:none;block-progression:tb;isolation:auto;mix-blend-mode:normal" d="M 14.984375 3.9863281 A 1.0001 1.0001 0 0 0 14.839844 4 L 6 4 C 4.9069372 4 4 4.9069372 4 6 L 4 14.832031 A 1.0001 1.0001 0 0 0 4 15.158203 L 4 24 C 4 25.093063 4.9069372 26 6 26 L 14.832031 26 A 1.0001 1.0001 0 0 0 15.158203 26 L 24 26 C 25.093063 26 26 25.093063 26 24 L 26 15.167969 A 1.0001 1.0001 0 0 0 26 14.841797 L 26 6 C 26 4.9069372 25.093063 4 24 4 L 15.154297 4 A 1.0001 1.0001 0 0 0 14.984375 3.9863281 z M 6 6 L 14 6 L 14 14 L 6 14 L 6 6 z M 16 6 L 24 6 L 24 14 L 16 14 L 16 6 z M 6 16 L 14 16 L 14 24 L 6 24 L 6 16 z M 16 16 L 24 16 L 24 24 L 16 24 L 16 16 z" font-weight="400" font-family="sans-serif" white-space="normal" overflow="visible"></path>
</svg>
