<svg xmlns="http://www.w3.org/2000/svg" viewBox="0 0 24 24">
    <path style="fill:#ff033e" d="M 3.4472656 2.0332031 L 2.0332031 3.4472656 L 3.4375 4.8515625 C 2.5705704 5.8221715 2.0371094 7.0950633 2.0371094 8.5 C 2.0371094 12.671 6.9493594 16.713234 8.3183594 17.990234 C 9.8953594 19.460234 12.037109 21.349609 12.037109 21.349609 C 12.037109 21.349609 14.178859 19.460234 15.755859 17.990234 C 15.845322 17.90681 16.063992 17.702477 16.181641 17.595703 L 19.033203 20.447266 L 20.447266 19.033203 L 17.646484 16.232422 C 17.650707 16.228283 17.652022 16.226804 17.65625 16.222656 L 16.240234 14.806641 C 16.236282 14.810535 16.234416 14.812521 16.230469 14.816406 L 6.5683594 5.1542969 C 6.5737524 5.1527302 6.5785809 5.1499792 6.5839844 5.1484375 L 5.0390625 3.6035156 C 5.0343726 3.6059119 5.0300728 3.6089188 5.0253906 3.6113281 L 3.4472656 2.0332031 z M 7.5371094 3 C 7.4491094 3 7.3643438 3.0096719 7.2773438 3.0136719 L 12.146484 7.8828125 L 13.623047 6.3085938 C 13.633047 6.2955938 14.710109 5 16.537109 5 C 18.467109 5 20.037109 6.57 20.037109 8.5 C 20.037109 10.115 18.882328 11.877609 17.611328 13.349609 L 19.03125 14.769531 C 20.57925 13.000531 22.037109 10.771 22.037109 8.5 C 22.037109 5.462 19.575109 3 16.537109 3 C 13.642109 3 12.037109 5.0898438 12.037109 5.0898438 C 12.037109 5.0898438 10.432109 3 7.5371094 3 z M 4.859375 6.2734375 L 14.767578 16.181641 C 14.628333 16.307563 14.495711 16.428858 14.392578 16.525391 C 13.641578 17.225391 12.753109 18.029875 12.037109 18.671875 C 11.321109 18.029875 10.431641 17.224391 9.6816406 16.525391 C 9.5556406 16.408391 9.4025625 16.268375 9.2265625 16.109375 C 7.8065625 14.826375 4.0371094 11.419 4.0371094 8.5 C 4.0371094 7.6487083 4.3503514 6.8768888 4.859375 6.2734375 z"></path>
</svg>
