<svg xmlns="http://www.w3.org/2000/svg" viewBox="0 0 24 24">
    <path style="fill:rgba(0, 0, 0, 0.2)" d="M 1.4570312 0.04296875 L 0.04296875 1.4570312 L 3.734375 5.1484375 C 2.523563 5.8200292 1.3954446 6.6258584 0.40625 7.5800781 L 1.7949219 9.0195312 C 2.7971383 8.0529433 3.9636101 7.2664957 5.2226562 6.6367188 L 7.4746094 8.8886719 C 6.1414389 9.4379727 4.9064186 10.23441 3.8105469 11.275391 L 5.1894531 12.724609 C 6.3172918 11.653582 7.6214948 10.893985 9.0410156 10.455078 L 11.603516 13.017578 C 9.9724065 13.106271 8.4644095 13.734396 7.2265625 14.859375 L 8.5722656 16.339844 C 9.5362656 15.463844 10.722 15 12 15 C 12.712431 15 13.390982 15.158226 14.023438 15.4375 L 22.542969 23.957031 L 23.957031 22.542969 L 16.535156 15.121094 L 16.552734 15.103516 L 15.238281 13.789062 C 15.217296 13.778126 15.194904 13.770483 15.173828 13.759766 L 11.441406 10.027344 C 11.451906 10.02678 11.462149 10.025922 11.472656 10.025391 L 9.6738281 8.2246094 C 9.6640328 8.2265165 9.6543189 8.2285373 9.6445312 8.2304688 L 7.2089844 5.7949219 C 7.2176105 5.792048 7.2257429 5.7880153 7.234375 5.7851562 L 5.6640625 4.2167969 C 5.6561727 4.2199375 5.6485095 4.2234103 5.640625 4.2265625 L 1.4570312 0.04296875 z M 12 3 C 10.577 3 9.1724531 3.1951094 7.8144531 3.5371094 L 9.4980469 5.2207031 C 10.320047 5.0827031 11.156 5 12 5 C 15.797 5 19.42575 6.43125 22.21875 9.03125 L 23.582031 7.5683594 C 20.417031 4.6223594 16.304 3 12 3 z M 12.291016 8.0136719 L 14.666016 10.388672 C 16.163016 10.826672 17.588078 11.624187 18.830078 12.742188 L 20.169922 11.257812 C 17.912922 9.2278125 15.126016 8.0876719 12.291016 8.0136719 z M 12 18 C 11.5 18 10.999609 18.2 10.599609 18.5 L 12 20 L 13.400391 18.5 C 13.000391 18.2 12.5 18 12 18 z"></path>
</svg>
