<svg xmlns="http://www.w3.org/2000/svg" xmlns:xlink="http://www.w3.org/1999/xlink" viewBox="0 0 50 50" version="1.1">
<g id="surface1">
<path style="fill:#007aff" d="M 13.09375 4.78125 L 7.90625 11.375 L 6 9.6875 L 3.34375 12.6875 L 6.84375 15.8125 L 8.4375 17.21875 L 9.75 15.53125 L 16.25 7.21875 Z M 19 9 L 19 13 L 46 13 L 46 9 Z M 13.09375 18.78125 L 7.90625 25.375 L 6 23.6875 L 3.34375 26.6875 L 6.84375 29.8125 L 8.4375 31.21875 L 9.75 29.53125 L 16.25 21.21875 Z M 19 23 L 19 27 L 46 27 L 46 23 Z M 13.09375 32.78125 L 7.90625 39.375 L 6 37.6875 L 3.34375 40.6875 L 6.84375 43.8125 L 8.4375 45.21875 L 9.75 43.53125 L 16.25 35.21875 Z M 19 37 L 19 41 L 46 41 L 46 37 Z "></path>
</g>
</svg>
